<?xml version="1.0" encoding="UTF-8" standalone="no"?>
<!-- Created with Inkscape (http://www.inkscape.org/) -->

<svg
   width="284.59601mm"
   height="72.330002mm"
   viewBox="0 0 284.59601 72.330002"
   version="1.1"
   id="svg5958"
   inkscape:version="1.1 (c4e8f9ed74, 2021-05-24)"
   sodipodi:docname="nufluxjl.svg"
   xmlns:inkscape="http://www.inkscape.org/namespaces/inkscape"
   xmlns:sodipodi="http://sodipodi.sourceforge.net/DTD/sodipodi-0.dtd"
   xmlns="http://www.w3.org/2000/svg"
   xmlns:svg="http://www.w3.org/2000/svg">
  <sodipodi:namedview
     id="namedview5960"
     pagecolor="#ffffff"
     bordercolor="#666666"
     borderopacity="1.0"
     inkscape:pageshadow="2"
     inkscape:pageopacity="0.0"
     inkscape:pagecheckerboard="0"
     inkscape:document-units="mm"
     showgrid="false"
     showguides="true"
     inkscape:guide-bbox="true"
     inkscape:zoom="0.77058782"
     inkscape:cx="550.2293"
     inkscape:cy="266.03068"
     inkscape:window-width="1920"
     inkscape:window-height="1065"
     inkscape:window-x="0"
     inkscape:window-y="15"
     inkscape:window-maximized="1"
     inkscape:current-layer="layer1"
     width="284.596mm" />
  <defs
     id="defs5955">
    <filter
       id="a"
       x="-0.066082679"
       y="-0.10300381"
       width="1.1321654"
       height="1.2060076">
      <feGaussianBlur
         stdDeviation="6.33105"
         id="feGaussianBlur6066" />
    </filter>
    <style
       id="style6932">.cls-1{fill:#1a1a1a}.cls-2{fill:#4d64ae}.cls-3{fill:#ca3c32}.cls-4{fill:#9259a3}.cls-5{fill:#399746}</style>
  </defs>
  <g
     inkscape:groupmode="layer"
     id="layer2"
     inkscape:label="BG"
     style="display:inline" />
  <g
     inkscape:label="FG"
     inkscape:groupmode="layer"
     id="layer1"
     style="display:inline">
    <g
       id="g14051">
      <path
         d="M 2.0380597,62.253941 V 10.167372 A 9.6761556,8.1293082 0 0 1 11.714223,2.0380597 h 34.993963 a 9.6761556,8.1293082 0 0 1 9.676152,8.1293123 V 62.253941 A 9.6761556,8.1293082 0 0 1 46.708186,70.38325 H 11.714223 A 9.6761556,8.1293082 0 0 1 2.0380597,62.253941"
         fill="#eeeeec"
         stroke="#000000"
         stroke-linejoin="round"
         stroke-width="3.98478"
         id="path6073"
         style="fill:none" />
      <g
         id="g8686"
         transform="translate(-0.77177234,-0.07574022)">
        <path
           style="display:inline;fill:none;stroke:#000000;stroke-width:1.2;stroke-linecap:butt;stroke-linejoin:miter;stroke-miterlimit:4;stroke-dasharray:none;stroke-opacity:1"
           d="M 16.001095,16.26672 29.898416,34.506931"
           id="path7796" />
        <path
           style="display:inline;fill:none;stroke:#000000;stroke-width:1.2;stroke-linecap:butt;stroke-linejoin:miter;stroke-miterlimit:4;stroke-dasharray:none;stroke-opacity:1"
           d="M 29.898416,34.506931 43.966095,16.26672"
           id="path8356" />
        <path
           style="display:inline;fill:none;stroke:#000000;stroke-width:1.2;stroke-linecap:butt;stroke-linejoin:miter;stroke-miterlimit:4;stroke-dasharray:none;stroke-opacity:1"
           d="m 29.898416,56.395659 v -21.888728 0 0 0"
           id="path8586" />
        <g
           id="g893"
           transform="matrix(0.26458333,0,0,0.26458333,24.032604,27.267398)">
          <path
             id="path19"
             d="m 22.17,36.33 a 8.9,8.9 0 1 1 8.9,-8.9 8.91,8.91 0 0 1 -8.9,8.9 z"
             class="cls-2" />
        </g>
        <g
           id="g7757">
          <path
             id="path13"
             d="m 15.991417,20.013816 a 3.75,3.75 0 1 1 3.754215,-3.749999 3.7542136,3.7542136 0 0 1 -3.754215,3.749999 z"
             class="cls-3"
             style="stroke-width:0.421348" />
          <ellipse
             style="fill:none;stroke:#000000;stroke-width:0.7;stroke-linejoin:round"
             id="path7134"
             cx="15.995632"
             cy="16.263817"
             rx="6.9995656"
             ry="7" />
        </g>
        <g
           id="g7753">
          <path
             id="path25"
             d="m 43.966097,19.982221 a 3.75,3.75 0 1 1 3.754213,-3.749999 3.7542136,3.7542136 0 0 1 -3.754213,3.749999 z"
             class="cls-4"
             style="stroke-width:0.421348" />
          <ellipse
             style="fill:none;stroke:#000000;stroke-width:0.7;stroke-linejoin:round"
             id="path7134-6"
             cx="43.97031"
             cy="16.232222"
             rx="6.9995656"
             ry="7" />
        </g>
        <g
           id="g7749">
          <g
             id="g7662">
            <path
               id="path31"
               d="m 29.898417,60.036051 a 3.7499988,3.7499988 0 1 1 3.75,-3.749999 3.7457854,3.7457854 0 0 1 -3.75,3.749999 z"
               class="cls-5"
               style="stroke-width:0.421348" />
            <ellipse
               style="fill:none;stroke:#000000;stroke-width:0.7;stroke-linejoin:round"
               id="path7134-6-7"
               cx="29.937174"
               cy="56.340569"
               rx="6.9995656"
               ry="7" />
          </g>
        </g>
      </g>
    </g>
    <g
       aria-label="NuFlux.jl"
       id="text9796"
       style="font-size:52.9167px;line-height:1.25;font-family:'Tamil MN';-inkscape-font-specification:'Tamil MN';letter-spacing:0px;word-spacing:0px;stroke-width:0.264583">
      <path
         d="m 64.035278,19.738783 h 5.761926 L 90.777848,43.148221 V 19.738783 h 5.658573 V 57.100866 H 92.534848 L 69.745528,31.262634 v 25.269791 h -5.71025 z"
         id="path27219" />
      <path
         d="m 112.58532,28.808002 v 19.533703 q 0,0.826824 0.31005,1.550294 0.3359,0.697633 0.8785,1.214397 0.56844,0.516765 1.29192,0.826824 0.7493,0.310058 1.57613,0.310058 0.46509,0 1.05936,-0.258382 0.59428,-0.258382 1.18856,-0.72347 0.62012,-0.465089 1.18856,-1.085206 0.59428,-0.620118 1.05937,-1.369426 V 28.808002 h 8.42326 v 27.724423 h -8.42326 v -2.583823 q -1.65365,1.421103 -3.53984,2.273764 -1.86035,0.826824 -3.64319,0.826824 -2.06706,0 -3.8499,-0.671794 -1.78283,-0.697633 -3.10058,-1.860353 -1.31775,-1.188559 -2.06706,-2.764691 -0.74931,-1.60197 -0.74931,-3.410647 V 28.808002 Z"
         id="path27221" />
      <path
         d="m 163.71917,19.738783 v 3.126426 h -17.38913 v 12.143969 h 15.32207 v 3.152264 H 146.33004 V 56.532425 H 137.3125 V 19.738783 Z"
         id="path27223" />
      <path
         d="m 178.52448,56.532425 h -8.34574 V 17.645886 l 8.34574,-2.325441 z"
         id="path27225" />
      <path
         d="m 193.63985,28.808002 v 19.533703 q 0,0.826824 0.31005,1.550294 0.3359,0.697633 0.8785,1.214397 0.56845,0.516765 1.29192,0.826824 0.74931,0.310058 1.57613,0.310058 0.46509,0 1.05937,-0.258382 0.59428,-0.258382 1.18855,-0.72347 0.62012,-0.465089 1.18856,-1.085206 0.59428,-0.620118 1.05937,-1.369426 V 28.808002 h 8.42326 v 27.724423 h -8.42326 v -2.583823 q -1.65365,1.421103 -3.53984,2.273764 -1.86035,0.826824 -3.64319,0.826824 -2.06706,0 -3.84989,-0.671794 -1.78284,-0.697633 -3.10059,-1.860353 -1.31775,-1.188559 -2.06706,-2.764691 -0.74931,-1.60197 -0.74931,-3.410647 V 28.808002 Z"
         id="path27227" />
      <path
         d="m 219.34889,56.532425 h -5.96863 L 224.92995,42.553942 214.28459,28.291238 h 9.43096 l 6.1495,8.216557 6.79545,-8.216557 h 5.96863 l -9.92188,12.066454 12.04062,16.174733 h -9.45679 l -7.57061,-10.180263 z"
         id="path27229" />
      <path
         d="m 247.17667,53.380161 q 0,-0.775147 0.28422,-1.446941 0.28422,-0.697633 0.77514,-1.188559 0.51677,-0.516765 1.18856,-0.800985 0.69763,-0.310059 1.47278,-0.310059 0.77515,0 1.47278,0.310059 0.69763,0.28422 1.18856,0.800985 0.51676,0.490926 0.80098,1.188559 0.31006,0.671794 0.31006,1.446941 0,0.775147 -0.31006,1.472779 -0.28422,0.671794 -0.80098,1.188559 -0.49093,0.490926 -1.18856,0.775146 -0.69763,0.284221 -1.47278,0.284221 -0.77515,0 -1.47278,-0.284221 -0.67179,-0.28422 -1.18856,-0.775146 -0.49092,-0.516765 -0.77514,-1.188559 -0.28422,-0.697632 -0.28422,-1.472779 z"
         id="path27231" />
      <path
         d="m 269.32003,56.532425 q 0,3.694867 -0.85266,5.942793 -0.82682,2.273765 -2.35128,3.514 -1.52445,1.266073 -3.66903,1.679485 -2.14457,0.43925 -4.75423,0.43925 -1.757,0 -3.12643,-0.310059 -1.36942,-0.284221 -2.2996,-0.800985 -0.93018,-0.516765 -1.39527,-1.214397 -0.49092,-0.671794 -0.49092,-1.421103 0,-1.31775 1.03353,-2.19625 1.03353,-0.878499 2.81636,-0.878499 0.6718,0 1.2144,0.206705 0.51677,0.206706 0.93018,0.516765 0.41341,0.335897 0.74931,0.697632 0.31006,0.387574 0.5426,0.723471 0.59428,0.775147 0.98185,1.033529 0.41341,0.258382 0.74931,0.258382 0.36174,0 0.64596,-0.180867 0.28422,-0.180868 0.46509,-0.645956 0.18086,-0.465088 0.25838,-1.240235 0.10335,-0.775147 0.10335,-1.989544 V 30.30662 l 8.4491,-2.325441 z M 260.5092,19.945489 q 0,-0.852662 0.33589,-1.60197 0.36174,-0.749309 0.98185,-1.291912 0.62012,-0.568441 1.44695,-0.8785 0.82682,-0.335897 1.757,-0.335897 0.93017,0 1.757,0.335897 0.82682,0.310059 1.44694,0.8785 0.62011,0.542603 0.98185,1.291912 0.36173,0.749308 0.36173,1.60197 0,0.852662 -0.36173,1.60197 -0.36174,0.749309 -0.98185,1.291912 -0.62012,0.542603 -1.44694,0.8785 -0.82683,0.310058 -1.757,0.310058 -0.93018,0 -1.757,-0.310058 -0.82683,-0.335897 -1.44695,-0.8785 -0.62011,-0.542603 -0.98185,-1.291912 -0.33589,-0.749308 -0.33589,-1.60197 z"
         id="path27233" />
      <path
         d="m 284.6421,56.532425 h -8.34575 V 17.645886 l 8.34575,-2.325441 z"
         id="path27235" />
    </g>
  </g>
</svg>
